<?xml version="1.0"?>
<svg width="640" height="480" xmlns="http://www.w3.org/2000/svg" xmlns:svg="http://www.w3.org/2000/svg">
 <!-- Created with SVG-edit - https://github.com/SVG-Edit/svgedit-->
 <g class="layer">
  <title>Layer 1</title>
  <g id="svg_19">
   <path d="m92.569819,41.603515c5.119388,0 9.932743,2.004179 13.548581,5.639975c3.624154,3.63746 5.61669,8.484079 5.61669,13.641721l7.891973,0c0,-14.982275 -12.139834,-27.16868 -27.058908,-27.16868l0,7.886984l0.001663,0zm0.009979,-13.984344c18.2505,0 33.094729,14.927389 33.094729,33.274356l7.888647,0c0,-22.696284 -18.385221,-41.163003 -40.985039,-41.163003l0,7.888647l0.001663,0zm10.910716,27.760786c0,3.018742 -2.446595,5.467 -5.463674,5.467s-5.463674,-2.448258 -5.463674,-5.467c0,-3.015416 2.446595,-5.463674 5.463674,-5.463674s5.463674,2.446595 5.463674,5.463674z" fill="#191919" id="svg_3" opacity="0.5" stroke="#000000"/>
   <path d="m87.71359,42.532548c0,0 3.65418,-17.053993 0,-22.830972c-3.658484,-5.776979 -5.117573,-9.62506 -13.161933,-12.379935s-5.113269,-2.205844 -10.962539,-1.92404c-5.84927,0.276945 -10.725813,3.84808 -10.725813,5.772121c0,0 -3.65418,0.276945 -5.113269,1.928899c-1.463393,1.651954 -3.899513,9.348115 -3.899513,11.277013s1.21806,14.857866 2.43612,17.607883l-1.450481,0.549032c-1.21806,15.951071 4.872239,17.87997 4.872239,17.87997c2.190786,14.857866 4.385876,8.531855 4.385876,12.379935s-2.19509,2.477931 -2.19509,2.477931s-1.945452,6.049066 -6.817692,8.250051c-4.872239,2.196127 -31.919193,14.022172 -34.118588,16.500102c-2.199394,2.482789 -1.949757,14.031889 -1.949757,14.031889l115.982539,0c0,0 0.253942,-11.5491 -1.945452,-14.031889c-2.203698,-2.482789 -29.250652,-14.303976 -34.122892,-16.500102c-4.872239,-2.200985 -6.817692,-8.250051 -6.817692,-8.250051s-2.19509,1.37015 -2.19509,-2.477931s2.19509,2.477931 4.39018,-12.379935c0,0 6.085995,-1.928899 4.872239,-17.87997l-1.463393,0z" fill="#ffffff" id="svg_4" stroke="#000000"/>
   <path d="m36.31994,32.336957l0,80.433365l11.938776,0l0,-80.433365l-11.938776,0zm-16.530613,80.433365l11.938776,0l0,-97.852056l-11.938776,0l0,97.852056zm-16.530613,0l11.938776,0l0,-63.014674l-11.938776,0l0,63.014674z" fill="#aaaaff" id="svg_2" opacity="0.25" stroke="#000000"/>
   <path d="m73.062603,38.479465c-1.042559,-0.443265 -2.298248,-0.062665 -2.806404,0.854275c-0.506056,0.916941 -0.069294,2.019112 0.973265,2.463299c3.270463,1.397067 5.527765,4.335885 5.525665,7.741927c-0.010499,4.74966 -4.388615,8.592516 -9.79879,8.60081c-5.411225,-0.009215 -9.789341,-3.852072 -9.79984,-8.60081c-0.0021,-3.407886 2.256252,-6.349468 5.529865,-7.74377c1.044658,-0.444186 1.47827,-1.546358 0.973265,-2.463299c-0.506056,-0.915097 -1.759646,-1.298462 -2.804304,-0.854275c-4.67419,1.985937 -7.897407,6.195569 -7.899507,11.061344c0.0021,6.786282 6.2669,12.286082 14.000521,12.287925c7.732571,-0.001843 13.998422,-5.501643 13.999472,-12.287925c-0.0021,-4.863932 -3.221117,-9.0708 -7.893207,-11.059501zm-6.106264,9.062506c1.159098,0 2.098766,-0.823864 2.098766,-1.843097l0,-8.601732c0,-1.018311 -0.939668,-1.842175 -2.098766,-1.842175c-1.161198,0 -2.099816,0.824786 -2.099816,1.842175l0,8.60081c0,1.019232 0.938618,1.844018 2.099816,1.844018z" fill="#ff0000" id="svg_6" opacity="0.65" stroke="#000000" stroke-dasharray="null" stroke-linecap="null" stroke-linejoin="null"/>
   <text fill="#000000" font-family="Sans-serif" font-size="24" id="svg_11" stroke="#000000" stroke-dasharray="null" stroke-linecap="null" stroke-linejoin="null" stroke-width="0" text-anchor="middle" transform="matrix(4.2 0 0 2.96154 -367.45 -616.904)" x="97.357142" xml:space="preserve" y="248.383132">J</text>
   <text fill="#000000" font-family="Sans-serif" font-size="24" id="svg_12" stroke="#000000" stroke-dasharray="null" stroke-linecap="null" stroke-linejoin="null" stroke-width="0" text-anchor="middle" transform="matrix(3.22096 0 0 2.82393 -488.62 -715.88)" x="174.370597" xml:space="preserve" y="294.409808">N</text>
   <text fill="#000000" font-family="Sans-serif" font-size="24" id="svg_13" stroke="#000000" stroke-dasharray="null" stroke-linecap="null" stroke-linejoin="null" stroke-width="0" text-anchor="middle" transform="matrix(3.33333 0 0 4.72099 -160.031 -1597.19)" x="74.899998" xml:space="preserve" y="360.825329">T</text>
   <text fill="#000000" font-family="Sans-serif" font-size="24" id="svg_14" stroke="#000000" stroke-dasharray="null" stroke-linecap="null" stroke-linejoin="null" stroke-width="0" text-anchor="middle" transform="matrix(2.5625 0 0 3.14815 -150.757 -694.926)" x="99.036585" xml:space="preserve" y="257.194115">P</text>
  </g>
 </g>
</svg>