<?xml version="1.0"?>
<svg width="640" height="480" xmlns="http://www.w3.org/2000/svg" xmlns:svg="http://www.w3.org/2000/svg">
 <!-- Created with SVG-edit - https://github.com/SVG-Edit/svgedit-->
 <g class="layer">
  <title>Layer 1</title>
  <path d="m49.933581,96.946545l-12.3622,0c-3.64199,0 -7.032041,-3.796239 -7.032041,-8.116925l0,-3.134682l19.250275,0c3.114116,0 5.640372,-2.517686 5.640372,-5.623233c0,-3.10726 -2.526256,-5.624947 -5.640372,-5.624947l-19.250275,0l0,-5.554678c0,-3.144966 -2.356582,-5.695216 -5.470698,-5.695216c-3.112402,0 -5.638658,2.55025 -5.638658,5.695216l0,19.93754c0,10.677459 8.029517,19.322258 17.954584,19.322258l12.358773,0c3.11583,0 5.686646,-2.507403 5.686646,-5.652369s-2.38229,-5.552964 -5.496406,-5.552964z" fill="#333333" id="svg_4" stroke="#000000" stroke-dasharray="null" stroke-linecap="null" stroke-linejoin="null" stroke-width="null"/>
 </g>
</svg>